{"title":"WEST IS WEST 2011 XVID DVDRIP FOOKKNOWS","uid":6475094,"size":726722562,"categoryP":"video","categoryS":"movies","magnet":"?xt=urn:btih:3f40d8200a385e5be8e67a8f6e034ffbdd02cd7b&amp;dn=WEST+IS+WEST+2011+XVID+DVDRIP+FOOKKNOWS&amp;tr=udp%3A%2F%2Ftracker.openbittorrent.com%3A80&amp;tr=udp%3A%2F%2Fopen.demonii.com%3A1337&amp;tr=udp%3A%2F%2Ftracker.coppersurfer.tk%3A6969&amp;tr=udp%3A%2F%2Fexodus.desync.com%3A6969","seeders":1,"leechers":0,"uploader":"SAFCukO09","files":3,"time":1308289182,"description":"\n\nComplete name: WEST IS WEST 2011 XVID DVDRIP FOOKKNOWS.avi\n\nFormat: AVI\n\nFormat/Info: Audio Video Interleave\n\nFile size: 693 MiB\n\nDuration: 1h 38mn\n\nOverall bit rate: 988 Kbps\n\nWriting library: Boilsoft AVI tool build 1/release\n\n\n\nVideo\n\nID: 0\n\nFormat: MPEG-4 Visual\n\nFormat profile: Advanced Simple@L5\n\nFormat settings, BVOP: Yes\n\nFormat settings, QPel: Yes\n\nFormat settings, GMC: No warppoints\n\nFormat settings, Matrix: Default (H.263)\n\nCodec ID: XVID\n\nCodec ID/Hint: XviD\n\nDuration: 1h 38mn\n\nBit rate: 856 Kbps\n\nWidth: 608 pixels\n\nHeight: 256 pixels\n\nDisplay aspect ratio: 2.35:1\n\nFrame rate: 23.976 fps\n\nColor space: YUV\n\nChroma subsampling: 4:2:0\n\nBit depth: 8 bits\n\nScan type: Progressive\n\nCompression mode: Lossy\n\nBits/(Pixel*Frame): 0.229\n\nStream size: 601 MiB (87%)\n\nWriting library: XviD 1.2.1 (UTC 2008-12-04)\n\n\n\nAudio\n\nID: 1\n\nFormat: MPEG Audio\n\nFormat version: Version 1\n\nFormat profile: Layer 3\n\nMode: Joint stereo\n\nMode extension: MS Stereo\n\nCodec ID: 55\n\nCodec ID/Hint: MP3\n\nDuration: 1h 38mn\n\nBit rate mode: Variable\n\nBit rate: 119 Kbps\n\nNominal bit rate: 128 Kbps\n\nChannel(s): 2 channels\n\nSampling rate: 48.0 KHz\n\nCompression mode: Lossy\n\nStream size: 83.3 MiB (12%)\n\nAlignment: Aligned on interleaves\n\nInterleave, duration: 24 ms (0.58 video frame)\n\nInterleave, preload duration: 524 ms\n\nWriting library: LAME3.98r\n\nEncoding settings: -m j -V 4 -q 2 -lowpass 17 --abr 128\n\n\n","torrent":{"xt":"urn:btih:3f40d8200a385e5be8e67a8f6e034ffbdd02cd7b","amp;dn":"WEST+IS+WEST+2011+XVID+DVDRIP+FOOKKNOWS","amp;tr":["udp%3A%2F%2Ftracker.openbittorrent.com%3A80","udp%3A%2F%2Fopen.demonii.com%3A1337","udp%3A%2F%2Ftracker.coppersurfer.tk%3A6969","udp%3A%2F%2Fexodus.desync.com%3A6969"],"infoHash":"3f40d8200a385e5be8e67a8f6e034ffbdd02cd7b","infoHashBuffer":{"type":"Buffer","data":[63,64,216,32,10,56,94,91,232,230,122,143,110,3,79,251,221,2,205,123]},"announce":[],"urlList":[]}}